<?xml version="1.0" encoding="utf-8"?>
<!-- Generator: Adobe Illustrator 25.4.1, SVG Export Plug-In . SVG Version: 6.00 Build 0)  -->
<svg version="1.1" id="Capa_1" xmlns="http://www.w3.org/2000/svg" xmlns:xlink="http://www.w3.org/1999/xlink" x="0px" y="0px"
	 viewBox="0 0 667.7 174.85" style="enable-background:new 0 0 667.7 174.85;" xml:space="preserve">
<style type="text/css">
	.st0{fill:#010102;}
	.st1{fill:#C10230;}
	.st2{fill-rule:evenodd;clip-rule:evenodd;fill:#010102;}
	.st3{display:none;}
	.st4{font-family:'Georgia';}
	.st5{font-size:28px;}
	.st6{letter-spacing:1;}
</style>
<g>
	<path class="st0" d="M9.83,143.91H9.32c-0.31-2.76-2.27-3.82-4.17-3.82c-1.95,0-3.36,1.07-3.36,2.79c0,3.44,4.76,4.34,7.42,7.01
		c1.31,1.29,1.62,2.46,1.62,3.69c0,2.92-2.37,5.29-5.3,5.29c-2.01,0-3.66-0.98-4.26-0.98c-0.33,0-0.56,0.23-0.72,0.71H0v-5.02h0.56
		c0.04,3.43,2.86,4.58,4.48,4.58c2.26,0,3.74-1.31,3.74-3.32c0-3.22-5-4.71-7.09-6.79c-1.14-1.12-1.58-2.43-1.58-3.88
		c0-2.85,2.04-4.81,5.09-4.81c1.98,0,2.92,0.72,3.65,0.72c0.29,0,0.36-0.06,0.49-0.53h0.49V143.91z"/>
	<path class="st0" d="M23.8,152.7c0,2.78-1.17,5.39-3.9,5.39c-2.69,0-3.92-2.45-3.92-5.39c0-3.28,1.47-5.4,3.92-5.4
		C22.57,147.3,23.8,149.85,23.8,152.7z M26.21,152.7c0-3.47-2.7-6.07-6.32-6.07c-3.62,0-6.32,2.6-6.32,6.07
		c0,3.45,2.69,6.05,6.32,6.05C23.51,158.75,26.21,156.15,26.21,152.7z"/>
	<path class="st0" d="M39.66,150.69h-0.55c-0.5-2.08-1.97-3.39-3.89-3.39c-2.29,0-3.88,1.93-3.88,4.74c0,3.16,1.98,5.77,4.33,5.77
		c1.42,0,3.12-0.74,4.32-2.4v0.84c-1.23,1.69-2.99,2.5-5.08,2.5c-3.43,0-5.74-2.34-5.74-5.77c0-3.53,2.59-6.35,5.9-6.35
		c1.74,0,2.68,0.67,3.26,0.67c0.29,0,0.58-0.24,0.8-0.67h0.55V150.69z"/>
	<path class="st0" d="M44.91,140.65c-0.77,0-1.44,0.62-1.44,1.41c0,0.78,0.67,1.42,1.44,1.42c0.79,0,1.4-0.64,1.4-1.42
		C46.31,141.27,45.7,140.65,44.91,140.65z M45.92,146.63h-0.53l-3.8,0.34v0.55c1.67,0,2.16,0.14,2.16,1.72v7.04
		c0,1.37-0.41,1.59-2.16,1.59v0.55h6.25v-0.55c-1.62,0-1.92-0.46-1.92-1.59V146.63z"/>
	<path class="st0" d="M52.67,150.88c0.14-2.15,1.27-3.58,3.18-3.58c1.47,0,3.18,1.04,3.1,3.58H52.67z M61.1,151.43
		c0.17-2.68-2.3-4.8-4.95-4.8c-3.26,0-5.77,2.72-5.77,6.19c0,3.45,2.58,5.93,6.18,5.93c2.03,0,3.35-0.66,4.74-2.44v-0.83
		c-1.64,1.83-2.46,2.38-4.05,2.38c-1.55,0-4.64-1.29-4.58-6.42H61.1z"/>
	<path class="st0" d="M73.26,156.17c0,1.23-0.52,1.75-1.83,1.75c-3.78,0-5.06-3.17-5.06-5.93c0-2.8,1.46-4.68,3.54-4.68
		c1.17,0,2.43,0.71,3.35,1.94V156.17z M75.44,138.03H74.9l-3.81,0.38v0.55h0.65c1.14,0,1.53,0.32,1.53,1.98v7.06
		c-1.47-0.97-2.64-1.38-3.88-1.38c-3.01,0-5.4,2.58-5.4,5.84c0,2.68,1.82,5.95,6.71,5.95h6.67v-0.54c-1.47,0-1.92-0.42-1.92-1.69
		V138.03z"/>
	<path class="st0" d="M85.86,156.08c-0.45,0.97-1.7,1.45-2.37,1.45c-0.94,0-1.76-0.94-1.76-2.12c0-2.31,1.94-2.28,4.13-3.23V156.08z
		 M88.06,150.83c0-3.1-2.21-4.2-4.14-4.2c-2.09,0-3.71,1.38-4.2,3.52l0.57,0.16c0.45-1.65,1.71-2.46,3.02-2.46
		c1.62,0,2.56,1.16,2.56,2.78v0.84c-1.88,1.1-6.32,0.98-6.32,4.24c0,1.68,1.47,3.04,3.23,3.04c1.21,0,1.95-0.38,3.09-1.61
		c0.4,1.12,0.96,1.61,1.93,1.61c1.32,0,2.18-0.91,2.26-2.33H89.5c-0.25,0.81-0.42,1.11-0.79,1.11c-0.53,0-0.66-0.46-0.66-1.79
		V150.83z"/>
	<path class="st0" d="M101.29,156.17c0,1.23-0.53,1.75-1.83,1.75c-3.79,0-5.06-3.17-5.06-5.93c0-2.8,1.45-4.68,3.53-4.68
		c1.16,0,2.45,0.71,3.36,1.94V156.17z M103.44,138.03h-0.53l-3.82,0.38v0.55h0.67c1.14,0,1.53,0.32,1.53,1.98v7.06
		c-1.48-0.97-2.64-1.38-3.88-1.38c-3.01,0-5.42,2.58-5.42,5.84c0,2.68,1.84,5.95,6.74,5.95h6.66v-0.54c-1.47,0-1.94-0.42-1.94-1.69
		V138.03z"/>
	<path class="st0" d="M124.74,156.17c0,1.23-0.51,1.75-1.82,1.75c-3.79,0-5.06-3.17-5.06-5.93c0-2.8,1.45-4.68,3.51-4.68
		c1.19,0,2.45,0.71,3.36,1.94V156.17z M126.92,138.03h-0.53l-3.81,0.38v0.55h0.64c1.13,0,1.53,0.32,1.53,1.98v7.06
		c-1.47-0.97-2.63-1.38-3.87-1.38c-3,0-5.41,2.58-5.41,5.84c0,2.68,1.82,5.95,6.72,5.95h6.65v-0.54c-1.46,0-1.92-0.42-1.92-1.69
		V138.03z"/>
	<path class="st0" d="M133.5,150.88c0.13-2.15,1.27-3.58,3.19-3.58c1.44,0,3.19,1.04,3.09,3.58H133.5z M141.94,151.43
		c0.15-2.68-2.3-4.8-4.98-4.8c-3.23,0-5.75,2.72-5.75,6.19c0,3.45,2.58,5.93,6.18,5.93c2.02,0,3.35-0.66,4.75-2.44v-0.83
		c-1.66,1.83-2.48,2.38-4.09,2.38c-1.51,0-4.61-1.29-4.55-6.42H141.94z"/>
	<path class="st0" d="M169.55,145.11c-0.91-3.5-2.84-5.02-6.04-5.02c-4.51,0-6.9,3.6-6.9,8.36c0,5.59,2.88,9.26,7.07,9.26
		c2.94,0,5.11-1.36,6.49-4.09l0.51,0.46c-1.23,2.95-4.18,4.8-7.77,4.8c-4.47,0-9.16-3.05-9.16-9.25c0-5.9,4.05-10.25,9.62-10.25
		c2.33,0,4.08,0.78,5.19,0.78c0.48,0,0.81-0.2,1.02-0.59h0.49v5.55H169.55z"/>
	<path class="st0" d="M183.79,152.7c0,2.78-1.19,5.39-3.92,5.39c-2.68,0-3.94-2.45-3.94-5.39c0-3.28,1.47-5.4,3.94-5.4
		C182.54,147.3,183.79,149.85,183.79,152.7z M186.18,152.7c0-3.47-2.69-6.07-6.31-6.07c-3.62,0-6.32,2.6-6.32,6.07
		c0,3.45,2.7,6.05,6.32,6.05C183.49,158.75,186.18,156.15,186.18,152.7z"/>
	<path class="st0" d="M208.58,156.28c0,1.18,0.39,1.59,1.94,1.59v0.55h-6.09v-0.55c1.62,0,1.96-0.32,1.96-2.21v-5.43
		c0-1.5-0.96-2.37-2.5-2.37c-1.24,0-2.25,0.68-3.26,2.2v6.16c0,1.2,0.35,1.65,1.9,1.65v0.55h-6.01v-0.55c1.58,0,1.91-0.16,1.91-2.21
		v-5.3c0-1.72-1.18-2.5-2.42-2.5c-1.33,0-2.59,0.9-3.32,2.2v6.25c0,1.16,0.48,1.6,1.94,1.6v0.51h-6.08v-0.55
		c1.38,0,1.95-0.13,1.95-1.84v-6.82c0-1.26-0.55-1.69-1.59-1.69h-0.72v-0.55l3.95-0.34h0.55v2.39h0.06
		c0.94-1.46,2.57-2.39,4.09-2.39c1.55,0,3.01,0.84,3.59,2.59c1.24-1.72,2.69-2.59,4.26-2.59c1.62,0,3.88,0.94,3.88,3.88V156.28z"/>
	<path class="st0" d="M215.39,150.88c0.14-2.15,1.27-3.58,3.19-3.58c1.45,0,3.19,1.04,3.09,3.58H215.39z M223.85,151.43
		c0.16-2.68-2.31-4.8-4.98-4.8c-3.23,0-5.77,2.72-5.77,6.19c0,3.45,2.6,5.93,6.18,5.93c2.02,0,3.36-0.66,4.76-2.44v-0.83
		c-1.66,1.83-2.49,2.38-4.06,2.38c-1.57,0-4.64-1.29-4.59-6.42H223.85z"/>
	<path class="st0" d="M230.57,156.24c0,1.27,0.39,1.63,1.92,1.63v0.55h-6.05v-0.55c1.75,0,1.95-0.46,1.95-2.21v-6.26
		c0-1.69-0.41-1.89-2.37-1.89v-0.55l4.01-0.34h0.54v2.48c2.14-1.84,3.15-2.48,3.92-2.48c0.66,0,1.53,0.38,2.13,0.89l-0.89,2.04
		c-0.94-0.51-1.95-1-2.72-1c-0.73,0-1.39,0.38-2.43,1.39V156.24z"/>
	<path class="st0" d="M249.26,150.69h-0.57c-0.49-2.08-1.96-3.39-3.88-3.39c-2.29,0-3.89,1.93-3.89,4.74c0,3.16,2,5.77,4.35,5.77
		c1.39,0,3.1-0.74,4.29-2.4v0.84c-1.23,1.69-2.99,2.5-5.08,2.5c-3.44,0-5.74-2.34-5.74-5.77c0-3.53,2.6-6.35,5.9-6.35
		c1.74,0,2.68,0.67,3.27,0.67c0.29,0,0.6-0.24,0.78-0.67h0.57V150.69z"/>
	<path class="st0" d="M255.53,156.28c0,1.14,0.31,1.59,1.9,1.59v0.55h-6.26v-0.55c1.77,0,2.17-0.22,2.17-1.59v-7.04
		c0-1.58-0.48-1.72-2.17-1.72v-0.55l3.81-0.34h0.56V156.28z M255.9,142.06c0,0.78-0.61,1.42-1.39,1.42c-0.78,0-1.43-0.64-1.43-1.42
		c0-0.79,0.65-1.41,1.43-1.41C255.29,140.65,255.9,141.27,255.9,142.06z"/>
	<path class="st0" d="M270.15,152.7c0,2.78-1.16,5.39-3.91,5.39c-2.68,0-3.92-2.45-3.92-5.39c0-3.28,1.47-5.4,3.92-5.4
		C268.92,147.3,270.15,149.85,270.15,152.7z M272.56,152.7c0-3.47-2.7-6.07-6.32-6.07c-3.61,0-6.3,2.6-6.3,6.07
		c0,3.45,2.69,6.05,6.3,6.05C269.86,158.75,272.56,156.15,272.56,152.7z"/>
	<path class="st0" d="M295.7,151.39h-0.56c-0.41-1.6-0.69-1.8-2.58-1.8h-4.59v6.66c0,0.92,0.33,1.28,1.37,1.28h3.22
		c2.69,0,3.39-0.14,4.48-2.58h0.57l-0.84,3.46h-13.37v-0.55c1.47,0,2.1-0.46,2.1-2.93v-11.62c0-2.3-0.52-2.95-2.1-2.95v-0.57h13.34
		v3.12h-0.33c-0.44-2.05-1.1-2.21-3.13-2.21h-5.32v8h5.16c1.27,0,1.74-0.24,2.01-1.84h0.56V151.39z"/>
	<path class="st0" d="M311.28,156.51c0.75,0.97,1.5,1.36,2.56,1.36v0.55h-6.04v-0.55c1.04-0.16,1.04-0.72,0.53-1.43l-2.02-2.77
		l-2.04,2.57c-0.69,0.85-0.55,1.56,0.4,1.63v0.55h-4.68v-0.55c1.5,0,1.95-0.13,3.39-1.88l2.48-2.95l-2.71-3.58
		c-1.15-1.52-1.71-1.85-3.17-1.95v-0.55h6.29v0.55c-1.16,0.09-1.27,0.68-0.53,1.72l1.51,2.15l1.54-1.93
		c0.8-0.97,0.87-1.95-0.29-1.95v-0.55h4.54v0.55c-1.43,0.17-1.98,0.52-3.39,2.18l-1.89,2.27L311.28,156.51z"/>
	<path class="st0" d="M319.85,146.9h4v0.85h-4v7.38c0,1.59,0.81,2.4,2.09,2.4c0.84,0,1.46-0.33,2.15-1.11l0.35,0.42
		c-1.02,1.27-2.17,1.91-3.47,1.91c-1.94,0-3.29-1.36-3.29-3.33v-7.67h-2.17v-0.55c1.57-0.78,2.86-2.17,3.81-4.16h0.53V146.9z"/>
	<path class="st0" d="M328.59,150.88c0.13-2.15,1.27-3.58,3.18-3.58c1.47,0,3.18,1.04,3.09,3.58H328.59z M337.02,151.43
		c0.16-2.68-2.3-4.8-4.98-4.8c-3.23,0-5.74,2.72-5.74,6.19c0,3.45,2.59,5.93,6.19,5.93c2.02,0,3.35-0.66,4.72-2.44v-0.83
		c-1.65,1.83-2.46,2.38-4.05,2.38c-1.54,0-4.61-1.29-4.57-6.42H337.02z"/>
	<path class="st0" d="M343.76,156.24c0,1.27,0.38,1.63,1.92,1.63v0.55h-6.07v-0.55c1.75,0,1.96-0.46,1.96-2.21v-6.26
		c0-1.69-0.41-1.89-2.35-1.89v-0.55l4-0.34h0.54v2.48c2.13-1.84,3.14-2.48,3.93-2.48c0.65,0,1.53,0.38,2.11,0.89l-0.88,2.04
		c-0.93-0.51-1.94-1-2.73-1c-0.75,0-1.38,0.38-2.43,1.39V156.24z"/>
	<path class="st0" d="M356.22,156.28c0,1.14,0.29,1.59,1.91,1.59v0.55h-6.26v-0.55c1.75,0,2.18-0.22,2.18-1.59v-7.04
		c0-1.58-0.51-1.72-2.18-1.72v-0.55l3.78-0.34h0.57V156.28z M356.62,142.06c0,0.78-0.63,1.42-1.41,1.42c-0.8,0-1.43-0.64-1.43-1.42
		c0-0.79,0.64-1.41,1.43-1.41C355.99,140.65,356.62,141.27,356.62,142.06z"/>
	<path class="st0" d="M370.83,152.7c0,2.78-1.15,5.39-3.92,5.39c-2.64,0-3.9-2.45-3.9-5.39c0-3.28,1.47-5.4,3.9-5.4
		C369.62,147.3,370.83,149.85,370.83,152.7z M373.24,152.7c0-3.47-2.7-6.07-6.33-6.07c-3.59,0-6.31,2.6-6.31,6.07
		c0,3.45,2.72,6.05,6.31,6.05C370.54,158.75,373.24,156.15,373.24,152.7z"/>
	<path class="st0" d="M379.82,156.24c0,1.27,0.37,1.63,1.92,1.63v0.55h-6.06v-0.55c1.75,0,1.96-0.46,1.96-2.21v-6.26
		c0-1.69-0.43-1.89-2.37-1.89v-0.55l4.01-0.34h0.54v2.48c2.15-1.84,3.15-2.48,3.93-2.48c0.64,0,1.5,0.38,2.11,0.89l-0.88,2.04
		c-0.93-0.51-1.94-1-2.72-1c-0.75,0-1.4,0.38-2.44,1.39V156.24z"/>
	<path class="st0" d="M405,156.17c0,1.23-0.51,1.75-1.82,1.75c-3.77,0-5.04-3.17-5.04-5.93c0-2.8,1.42-4.68,3.51-4.68
		c1.16,0,2.45,0.71,3.34,1.94V156.17z M407.2,138.03h-0.55l-3.83,0.38v0.55h0.67c1.13,0,1.51,0.32,1.51,1.98v7.06
		c-1.46-0.97-2.64-1.38-3.86-1.38c-2.99,0-5.41,2.58-5.41,5.84c0,2.68,1.82,5.95,6.71,5.95h6.67v-0.54c-1.45,0-1.9-0.42-1.9-1.69
		V138.03z"/>
	<path class="st0" d="M413.77,150.88c0.12-2.15,1.25-3.58,3.17-3.58c1.46,0,3.19,1.04,3.08,3.58H413.77z M422.19,151.43
		c0.17-2.68-2.29-4.8-4.96-4.8c-3.24,0-5.76,2.72-5.76,6.19c0,3.45,2.57,5.93,6.19,5.93c2.01,0,3.34-0.66,4.73-2.44v-0.83
		c-1.65,1.83-2.46,2.38-4.05,2.38c-1.56,0-4.64-1.29-4.58-6.42H422.19z"/>
	<path class="st0" d="M426.97,140.52c0-1.11-0.35-1.56-1.58-1.56h-0.72v-0.55l3.95-0.38h0.53v18.2c0,1.24,0.38,1.63,1.79,1.63h0.29
		v0.55h-6.36v-0.55h0.57c1.18,0,1.53-0.5,1.53-2.18V140.52z"/>
	<path class="st0" d="M446.33,140.52h2.31c3.4,0,4.5,2.67,4.5,4.65c0,2.53-1.74,4.02-4.5,4.02c-0.98,0-1.46-0.03-2.31-0.31V140.52z
		 M446.33,149.71c1.35,0.17,2.05,0.19,2.86,0.19c4.23,0,6.53-1.71,6.53-4.8c0-2.56-2.05-5.29-7.18-5.29h-6.79v0.56
		c1.57,0,2.1,0.68,2.1,2.96v11.65c0,2.47-0.79,2.89-2.1,2.89v0.55h6.67v-0.55c-1.53,0-2.1-0.65-2.1-2.97V149.71z"/>
	<path class="st0" d="M459.57,150.88c0.14-2.15,1.27-3.58,3.19-3.58c1.47,0,3.19,1.04,3.09,3.58H459.57z M468.02,151.43
		c0.16-2.68-2.31-4.8-4.98-4.8c-3.23,0-5.76,2.72-5.76,6.19c0,3.45,2.58,5.93,6.2,5.93c2,0,3.34-0.66,4.72-2.44v-0.83
		c-1.66,1.83-2.45,2.38-4.05,2.38c-1.56,0-4.64-1.29-4.58-6.42H468.02z"/>
	<path class="st0" d="M474.72,156.24c0,1.27,0.4,1.63,1.93,1.63v0.55h-6.05v-0.55c1.75,0,1.94-0.46,1.94-2.21v-6.26
		c0-1.69-0.41-1.89-2.36-1.89v-0.55l4.01-0.34h0.52v2.48c2.17-1.84,3.16-2.48,3.96-2.48c0.65,0,1.51,0.38,2.1,0.89l-0.88,2.04
		c-0.94-0.51-1.95-1-2.73-1c-0.75,0-1.39,0.38-2.45,1.39V156.24z"/>
	<path class="st0" d="M491.74,138.02l-3.31,6.49h-0.61l2.1-6.49H491.74z M494.22,156.24c0,1.27,0.42,1.62,1.96,1.62v0.55l-4.14,0.23
		v-2.1h-0.07c-1.14,1.49-2.47,2.21-4.03,2.21c-2.25,0-3.72-1.69-3.72-3.84v-5.87c0-1.11-0.38-1.53-2.05-1.53v-0.55l3.68-0.34h0.55
		v8.19c0,1.63,1.03,2.6,2.58,2.6c1.13,0,2.11-0.62,3.07-1.88v-6.2c0-1.59-0.26-1.8-2.25-1.83v-0.55l3.89-0.34h0.54V156.24z"/>
	<g>
		<g>
			<path class="st1" d="M666.49,108.4c7.33-34.63-19.24-61.53-59.58-60.76c35.17-0.59,58.34,22.93,51.92,53.17
				c-6.53,30.72-41.12,56.76-77.25,58.15l0,0l-3.37,15.9C619.51,173.28,659.02,143.51,666.49,108.4z"/>
			<path class="st1" d="M605.19,47.69c-0.58,0.02-1.18,0.05-1.72,0.08C604.01,47.74,604.6,47.71,605.19,47.69
				c0.58-0.03,1.16-0.05,1.72-0.05C606.36,47.64,605.77,47.66,605.19,47.69C605.19,47.69,605.19,47.69,605.19,47.69z"/>
			<path class="st1" d="M651.15,93.22c5.6-26.33-14.99-46.73-45.96-45.53h-0.01l0,0c0.01,0,0.01,0,0.01,0
				c25.82-0.98,42.96,16,38.31,37.95c-4.67,21.95-29.37,40.53-55.18,41.53c0,0,0,0-0.01,0l-3.36,15.9c0.01,0,0.01,0,0.01,0
				C615.93,141.88,645.57,119.56,651.15,93.22z"/>
		</g>
		<g>
			<path class="st1" d="M527.03,66.46c-7.35,34.62,19.23,61.53,59.55,60.76c-35.17,0.58-58.32-22.93-51.89-53.17
				c6.52-30.74,41.08-56.77,77.25-58.16l0,0L615.29,0C574,1.58,534.48,31.34,527.03,66.46z"/>
			<path class="st1" d="M588.32,127.17c0.58-0.03,1.16-0.05,1.75-0.09C589.47,127.12,588.9,127.15,588.32,127.17
				c-0.59,0.02-1.17,0.04-1.74,0.05C587.14,127.21,587.73,127.2,588.32,127.17L588.32,127.17z"/>
			<path class="st1" d="M542.33,81.63c-5.58,26.34,15.01,46.73,45.97,45.53h0.01v-0.01h-0.01c-25.8,1-42.96-15.99-38.3-37.95
				c4.66-21.93,29.35-40.53,55.17-41.52c0.01,0,0.01,0,0.01,0l3.38-15.9h-0.01C577.58,32.97,547.93,55.29,542.33,81.63z"/>
		</g>
	</g>
</g>
<g>
	<g>
		<path class="st2" d="M458.59,70.34v30.48c-0.02,3.47,0.12,6.95,0.44,10.4c0.34,4.63,2.29,8.98,5.52,12.33
			c1.02,1.02,2.16,1.9,3.39,2.63c3.35,1.84,7.13,2.6,10.91,2.17c3.94-0.25,7.61-1.99,10.32-4.83c2.95-3.07,4.85-6.99,5.42-11.2
			c0.44-3.82,0.63-7.65,0.58-11.49V70.34h-7.14v30.48l-0.05,3.19c-0.04,2.38-0.24,4.75-0.61,7.1c-0.39,2.54-1.56,4.89-3.39,6.69
			c-1.33,1.3-2.98,2.19-4.79,2.54c-3.14,0.76-6.43-0.04-8.86-2.15c-0.6-0.49-1.14-1.04-1.62-1.66c-1.39-1.9-2.27-4.15-2.5-6.51
			c-0.35-3.05-0.51-6.12-0.48-9.21V70.34H458.59L458.59,70.34z"/>
		<path class="st2" d="M414.28,127.37h7.38v-23.98h3.53l15.55,23.98h9.06l-16.11-24.63c0.81-0.25,1.63-0.52,2.43-0.82
			c3.04-1.16,5.48-3.48,6.78-6.46c1.7-3.9,2.27-8.19,1.65-12.39c-0.34-3.43-1.83-6.65-4.21-9.15c-1.73-1.68-3.95-2.77-6.33-3.13
			c-2.28-0.33-4.56-0.47-6.84-0.45h-12.88V127.37L414.28,127.37L414.28,127.37z M421.66,96.18V78.1h5.5c1.09,0,2.22,0.09,3.36,0.25
			c0.98,0.14,1.95,0.4,2.86,0.78c1.66,0.79,2.91,2.25,3.4,4.01c0.85,2.81,0.65,5.83-0.61,8.49c-0.97,1.98-2.76,3.41-4.88,3.94
			c-0.69,0.19-1.38,0.31-2.09,0.4c-1.08,0.14-2.2,0.21-3.3,0.21H421.66L421.66,96.18z"/>
		<polygon class="st2" points="371.5,127.37 400.76,127.37 400.76,119.6 379.28,119.6 379.28,100 400.76,100 400.76,92.28 
			379.28,92.28 379.28,78.1 400.76,78.1 400.76,70.34 371.5,70.34 371.5,127.37 		"/>
		<path class="st2" d="M328.31,127.37h8.19v-22.84h3.27c2.79,0.07,5.58-0.16,8.32-0.71c2.95-0.53,5.69-1.89,7.92-3.91
			c4.4-4.37,6.28-10.66,5.04-16.72c-1.08-6.87-6.76-12.11-13.69-12.66c-2.13-0.16-4.29-0.23-6.44-0.19h-12.61V127.37L328.31,127.37
			L328.31,127.37z M336.5,78.1h6.01c2.16-0.02,4.27,0.37,6.23,1.19c2.14,0.88,3.71,2.75,4.21,4.99c0.44,2.07,0.33,4.22-0.33,6.22
			c-0.75,2.48-2.69,4.42-5.19,5.16c-1.98,0.62-4.05,0.93-6.12,0.91l-4.79-0.01V78.1L336.5,78.1z"/>
		<path class="st2" d="M304.96,127.37h14.11L304.34,98.5l13.72-28.16h-13.45l-4.84,11.94l-0.1,0.26c-0.85,2.15-1.53,4.38-2.05,6.66
			c-0.49-2.34-1.17-4.64-2-6.87l-4.9-11.99h-13.68l13.76,28.16l-15.11,28.87h14.82l4.48-11.58c0.95-2.77,1.71-5.57,2.29-8.42
			c0.57,2.88,1.42,5.69,2.53,8.42L304.96,127.37L304.96,127.37z"/>
		<polygon class="st2" points="236.28,127.37 263.69,127.37 263.69,116.25 248.86,116.25 248.86,102.88 262.31,102.88 262.31,92.41 
			248.86,92.41 248.86,80.88 263.69,80.88 263.69,70.34 236.28,70.34 236.28,127.37 		"/>
		<path class="st2" d="M167.08,127.37h12.91l2.02-26.32l0.24-3.68c0.45-5.54,0.73-11.08,0.83-16.65l7.99,46.64h9.44l8.48-46.33
			c0.03,5.68,0.21,11.37,0.57,17.04l0.14,2.8l1.39,26.49h13.17l-5.49-57.02h-16.57l-4.21,21.74c-0.93,6.12-1.67,12.22-2.28,18.38
			c-0.45-6.16-1.15-12.28-2.09-18.38l-3.41-21.74h-16.73L167.08,127.37L167.08,127.37z"/>
		<path class="st2" d="M157.81,99.67c0.01-3.62-0.35-7.26-1.09-10.81c-0.88-4.44-2.84-8.6-5.72-12.11
			c-2.9-3.54-6.97-5.93-11.48-6.77c-1.52-0.29-3.11-0.43-4.69-0.37c-4.76-0.17-9.45,1.31-13.23,4.23c-3.27,2.65-5.76,6.15-7.2,10.11
			c-1.73,4.79-2.56,9.86-2.43,14.96c-0.02,3.53,0.34,7.06,1.08,10.52c0.86,4.33,2.78,8.35,5.58,11.74
			c2.98,3.44,7.06,5.77,11.55,6.56c1.54,0.29,3.1,0.41,4.65,0.36c4.06,0.1,8.06-0.96,11.52-3.06c3.46-2.21,6.24-5.34,8.03-9.02
			C156.78,110.89,157.95,105.3,157.81,99.67L157.81,99.67L157.81,99.67z M134.83,117.22c-1.28,0.03-2.56-0.25-3.75-0.81
			c-1.44-0.74-2.63-1.87-3.44-3.26c-0.77-1.38-1.38-2.88-1.74-4.43c-0.71-3.23-1.04-6.53-0.97-9.82l0.03-1.91
			c-0.03-3.53,0.56-7.05,1.72-10.38c0.49-1.35,1.23-2.59,2.18-3.64c1.22-1.34,2.88-2.19,4.7-2.42c0.41-0.04,0.87-0.07,1.27-0.07
			c1.63-0.04,3.2,0.41,4.57,1.29c1.08,0.71,2,1.67,2.65,2.82c0.78,1.4,1.39,2.89,1.75,4.47c0.73,3.23,1.04,6.52,0.98,9.83
			l-0.02,1.88c0.02,3.52-0.57,7-1.72,10.32c-0.5,1.34-1.26,2.58-2.24,3.65c-1.21,1.33-2.89,2.19-4.68,2.41
			C135.7,117.21,135.27,117.24,134.83,117.22L134.83,117.22z"/>
		<path class="st2" d="M102.77,126.76v-11.45c-2.17,0.86-4.51,1.33-6.83,1.35c-2.17,0.04-4.31-0.43-6.24-1.36
			c-2.34-1.2-4.32-3.01-5.7-5.22c-2.08-3.41-3.11-7.36-2.96-11.34c-0.01-1.65,0.13-3.3,0.4-4.93c0.55-3.75,2.3-7.22,5-9.91
			c2.3-2.22,5.39-3.48,8.61-3.56c0.21,0,0.42,0,0.63,0c2.43,0.01,4.82,0.46,7.11,1.29V70.97c-2.6-0.96-5.35-1.42-8.12-1.36
			c-2.47-0.03-4.91,0.25-7.3,0.81c-5.93,1.49-11.19,5.01-14.78,9.97c-0.47,0.67-0.92,1.37-1.29,2.1
			c-2.88,5.17-4.32,10.99-4.16,16.88c-0.18,5.72,1.28,11.37,4.25,16.28c3,4.98,7.63,8.74,13.11,10.67c3.43,1.25,7.06,1.85,10.7,1.77
			C97.76,128.07,100.33,127.63,102.77,126.76L102.77,126.76z"/>
	</g>
</g>
<text transform="matrix(1 0 0 1 22.14 166.3898)" class="st3 st4 st5 st6">Sociedad de Comercio Exterior del Perú</text>
</svg>
