<?xml version="1.0" encoding="utf-8"?>
<!-- Generator: Adobe Illustrator 19.0.0, SVG Export Plug-In . SVG Version: 6.00 Build 0)  -->
<svg version="1.1" id="Layer_1" xmlns="http://www.w3.org/2000/svg" xmlns:xlink="http://www.w3.org/1999/xlink" x="0px" y="0px"
	 width="133px" height="35px" viewBox="-230.5 561.5 133 35" enable-background="new -230.5 561.5 133 35" xml:space="preserve">
<title>Group</title>
<desc>Created with Sketch.</desc>
<g>
	<path id="Combined-Shape-Copy" fill="#CA0538" d="M-109.6,571.1c0.2,0,0.4,0,0.6,0c1.1,0,2.2,0.1,3.2,0.4c5.9,1.3,9.3,6,8.1,11.8
		c-1.6,7.1-9.4,13-17.7,13.3l0.7-3.2c7.2-0.3,14.1-5.5,15.4-11.6c0.8-3.7-0.7-7-3.6-8.8c2.2,1.7,3.3,4.3,2.7,7.3
		c-1.1,5.3-7,9.7-13.2,10l0,0l0.7-3.2l0,0c5.1-0.2,10.1-3.9,11-8.3c0.7-3.5-1.3-6.4-4.8-7.3c-0.8-0.2-1.7-0.3-2.6-0.3
		c-0.1,0-0.2,0-0.3,0l0,0l0,0l0,0c0.1,0,0.2,0,0.2,0C-109.3,571.1-109.5,571.1-109.6,571.1l-0.1,0.2l0,0c-5.1,0.2-10.1,3.9-11,8.3
		c-0.6,2.7,0.5,5,2.6,6.3c1.5,0.6,3.2,0.9,5,0.9c-1.6,0.1-3.1-0.2-4.5-0.5c1.2,0.6,2.8,1,4.5,0.9l0,0l0,0l0,0
		c-2.3,0.1-4.4-0.4-6-1.4c-4.5-1.9-7-6.1-6-11.1c1.5-7,9.4-12.9,17.6-13.3l-0.7,3.2c-7.2,0.3-14.1,5.5-15.4,11.6
		c-0.7,3.5,0.5,6.6,3,8.5c-1.6-1.7-2.3-4-1.8-6.6c1.1-5.3,7-9.7,13.2-10l0,0L-109.6,571.1z M-109,571.1c0.5,0,1,0.1,1.5,0.1
		C-108,571.2-108.5,571.1-109,571.1z"/>
	<g>
		<g>
			<path id="Fill-1-Copy" d="M-228.4,590.3h-0.1c-0.1-0.6-0.5-0.8-0.8-0.8c-0.4,0-0.7,0.2-0.7,0.6c0,0.7,0.9,0.9,1.5,1.4
				c0.3,0.3,0.3,0.5,0.3,0.7c0,0.6-0.5,1-1,1c-0.4,0-0.7-0.2-0.8-0.2c-0.1,0-0.1,0.1-0.2,0.2h-0.1v-1h0.1c0,0.7,0.6,0.9,0.9,0.9
				c0.5,0,0.7-0.3,0.7-0.7c0-0.6-1-0.9-1.4-1.4c-0.2-0.2-0.3-0.5-0.3-0.8c0-0.6,0.4-0.9,1-0.9c0.4,0,0.6,0.2,0.7,0.2
				c0.1,0,0.1,0,0.1-0.1h0.1L-228.4,590.3L-228.4,590.3z"/>
			<path id="Fill-3-Copy" d="M-225.6,592.1c0,0.6-0.3,1.1-0.8,1.1c-0.5,0-0.8-0.5-0.8-1.1c0-0.7,0.3-1.1,0.8-1.1
				C-225.9,591-225.6,591.6-225.6,592.1 M-225.2,592.1c0-0.7-0.5-1.2-1.2-1.2c-0.7,0-1.2,0.5-1.2,1.2c0,0.7,0.5,1.2,1.2,1.2
				C-225.7,593.3-225.2,592.8-225.2,592.1"/>
			<path id="Fill-5-Copy" d="M-222.8,591.7h-0.1c-0.1-0.4-0.4-0.7-0.8-0.7c-0.5,0-0.8,0.4-0.8,0.9c0,0.6,0.4,1.1,0.9,1.1
				c0.3,0,0.6-0.2,0.9-0.5v0.2c-0.3,0.3-0.6,0.5-1,0.5c-0.7,0-1.1-0.5-1.1-1.1c0-0.7,0.5-1.2,1.2-1.2c0.4,0,0.5,0.2,0.7,0.2
				c0.1,0,0.1-0.1,0.2-0.2h0.1L-222.8,591.7L-222.8,591.7z"/>
			<path id="Fill-7-Copy" d="M-221.7,589.7c-0.2,0-0.3,0.1-0.3,0.3s0.2,0.3,0.3,0.3s0.3-0.1,0.3-0.3
				C-221.4,589.9-221.5,589.7-221.7,589.7L-221.7,589.7z M-221.5,590.9h-0.1l-0.8,0.1v0.1c0.3,0,0.4,0,0.4,0.4v1.4
				c0,0.3-0.1,0.3-0.4,0.3v0.1h1.2v-0.1c-0.3,0-0.4-0.1-0.4-0.3V590.9z"/>
			<path id="Fill-9-Copy" d="M-220.4,591.8c0.1-0.4,0.3-0.7,0.6-0.7c0.3,0,0.6,0.2,0.6,0.7H-220.4z M-218.7,591.9
				c0.1-0.5-0.5-0.9-1-0.9c-0.6,0-1.1,0.6-1.1,1.2c0,0.7,0.5,1.2,1.2,1.2c0.4,0,0.7-0.2,0.9-0.5v-0.3c-0.3,0.4-0.5,0.5-0.8,0.5
				c-0.3,0-0.9-0.3-0.9-1.3L-218.7,591.9L-218.7,591.9z"/>
			<path id="Fill-11-Copy" d="M-216.1,592.9c0,0.3-0.1,0.4-0.4,0.4c-0.8,0-1-0.6-1-1.2c0-0.6,0.3-0.9,0.7-0.9c0.3,0,0.5,0.2,0.7,0.4
				L-216.1,592.9L-216.1,592.9z M-215.6,589.2h-0.1l-0.8,0.1v0.1h0.1c0.2,0,0.3,0.1,0.3,0.4v1.4c-0.3-0.2-0.5-0.3-0.8-0.3
				c-0.6,0-1.1,0.5-1.1,1.1c0,0.5,0.4,1.2,1.4,1.2h1.4v-0.1c-0.3,0-0.4-0.1-0.4-0.3V589.2L-215.6,589.2z"/>
			<path id="Fill-13-Copy" d="M-213.6,592.8c-0.1,0.2-0.3,0.3-0.5,0.3c-0.2,0-0.4-0.2-0.4-0.4c0-0.5,0.4-0.5,0.8-0.6L-213.6,592.8
				L-213.6,592.8z M-213.1,591.7c0-0.6-0.5-0.8-0.8-0.8c-0.4,0-0.7,0.3-0.8,0.7l0.1,0.1c0.1-0.3,0.4-0.5,0.6-0.5
				c0.3,0,0.5,0.2,0.5,0.6v0.2c-0.4,0.2-1.2,0.2-1.2,0.8c0,0.3,0.3,0.6,0.6,0.6c0.3,0,0.4-0.1,0.6-0.3c0.1,0.2,0.2,0.3,0.4,0.3
				c0.3,0,0.4-0.2,0.5-0.5h-0.1c-0.1,0.2-0.1,0.2-0.2,0.2c-0.1,0-0.2-0.1-0.2-0.4L-213.1,591.7L-213.1,591.7z"/>
			<path id="Fill-15-Copy" d="M-210.5,592.9c0,0.3-0.1,0.4-0.4,0.4c-0.8,0-1-0.6-1-1.2c0-0.6,0.3-0.9,0.7-0.9c0.2,0,0.5,0.2,0.7,0.4
				L-210.5,592.9L-210.5,592.9z M-210,589.2h-0.1l-0.8,0.1v0.1h0.2c0.2,0,0.3,0.1,0.3,0.4v1.4c-0.3-0.2-0.5-0.3-0.8-0.3
				c-0.6,0-1.1,0.5-1.1,1.1c0,0.5,0.4,1.2,1.4,1.2h1.4v-0.1c-0.3,0-0.4-0.1-0.4-0.3L-210,589.2L-210,589.2z"/>
			<path id="Fill-17-Copy" d="M-205.5,592.9c0,0.3-0.1,0.4-0.4,0.4c-0.8,0-1-0.6-1-1.2c0-0.6,0.3-0.9,0.7-0.9c0.3,0,0.5,0.2,0.7,0.4
				L-205.5,592.9L-205.5,592.9z M-205,589.2h-0.1l-0.8,0.1v0.1h0.1c0.2,0,0.3,0.1,0.3,0.4v1.4c-0.3-0.2-0.5-0.3-0.8-0.3
				c-0.6,0-1.1,0.5-1.1,1.1c0,0.5,0.4,1.2,1.4,1.2h1.4v-0.1c-0.3,0-0.4-0.1-0.4-0.3V589.2z"/>
			<path id="Fill-19-Copy" d="M-203.9,591.8c0.1-0.4,0.3-0.7,0.6-0.7c0.3,0,0.6,0.2,0.6,0.7H-203.9z M-202.2,591.9
				c0.1-0.5-0.5-0.9-1-0.9c-0.6,0-1.1,0.6-1.1,1.2c0,0.7,0.5,1.2,1.2,1.2c0.4,0,0.7-0.2,0.9-0.5v-0.3c-0.3,0.4-0.5,0.5-0.8,0.5
				c-0.3,0-0.9-0.3-0.9-1.3L-202.2,591.9L-202.2,591.9z"/>
			<path id="Fill-21-Copy" d="M-196.2,590.6c-0.2-0.7-0.6-1-1.2-1c-0.9,0-1.4,0.7-1.4,1.7c0,1.1,0.6,1.9,1.4,1.9
				c0.6,0,1-0.3,1.3-0.8l0.1,0.1c-0.3,0.6-0.8,0.9-1.6,0.9c-0.9,0-1.8-0.6-1.8-1.9c0-1.2,0.8-2,1.9-2c0.5,0,0.8,0.2,1,0.2
				c0.1,0,0.2-0.1,0.2-0.1h0.1v1.1H-196.2z"/>
			<path id="Fill-23-Copy" d="M-193.3,592.1c0,0.6-0.3,1.1-0.8,1.1c-0.5,0-0.8-0.5-0.8-1.1c0-0.7,0.3-1.1,0.8-1.1
				C-193.5,591-193.3,591.6-193.3,592.1 M-192.8,592.1c0-0.7-0.5-1.2-1.2-1.2s-1.2,0.5-1.2,1.2c0,0.7,0.5,1.2,1.2,1.2
				S-192.8,592.8-192.8,592.1"/>
			<path id="Fill-25-Copy" d="M-188.2,592.9c0,0.2,0.1,0.3,0.4,0.3v0.1h-1.2v-0.1c0.3,0,0.4-0.1,0.4-0.4v-1.1c0-0.3-0.2-0.5-0.5-0.5
				c-0.3,0-0.5,0.2-0.7,0.4v1.2c0,0.3,0.1,0.3,0.4,0.3v0.1h-1.2v-0.1c0.3,0,0.4-0.1,0.4-0.4v-1c0-0.4-0.3-0.5-0.5-0.5
				c-0.3,0-0.5,0.2-0.7,0.4v1.2c0,0.2,0.1,0.3,0.4,0.3v0.1h-1.2v-0.1c0.3,0,0.4-0.1,0.4-0.4v-1.4c0-0.3-0.1-0.4-0.3-0.4h-0.2V591
				l0.8-0.1h0.1v0.5l0,0c0.2-0.3,0.5-0.5,0.8-0.5c0.3,0,0.6,0.2,0.7,0.5c0.3-0.4,0.5-0.5,0.8-0.5s0.8,0.2,0.8,0.8v1.1H-188.2z"/>
			<path id="Fill-27-Copy" d="M-186.9,591.8c0.1-0.4,0.3-0.7,0.6-0.7c0.3,0,0.6,0.2,0.6,0.7H-186.9z M-185.2,591.9
				c0.1-0.5-0.5-0.9-1-0.9c-0.6,0-1.1,0.6-1.1,1.2c0,0.7,0.5,1.2,1.2,1.2c0.4,0,0.7-0.2,0.9-0.5v-0.3c-0.3,0.4-0.5,0.5-0.8,0.5
				c-0.3,0-0.9-0.3-0.9-1.3L-185.2,591.9L-185.2,591.9z"/>
			<path id="Fill-29-Copy" d="M-183.9,592.9c0,0.3,0.1,0.3,0.4,0.3v0.1h-1.2v-0.1c0.4,0,0.4-0.1,0.4-0.4v-1.2c0-0.3-0.1-0.4-0.5-0.4
				V591l0.8-0.1h0.1v0.5c0.4-0.4,0.6-0.5,0.8-0.5c0.1,0,0.3,0.1,0.4,0.2l-0.2,0.4c-0.2-0.1-0.4-0.2-0.5-0.2c-0.2,0-0.3,0.1-0.5,0.3
				L-183.9,592.9L-183.9,592.9z"/>
			<path id="Fill-31-Copy" d="M-180.2,591.7h-0.1c-0.1-0.4-0.4-0.7-0.8-0.7c-0.5,0-0.8,0.4-0.8,0.9c0,0.6,0.4,1.1,0.9,1.1
				c0.3,0,0.6-0.2,0.9-0.5v0.2c-0.3,0.3-0.6,0.5-1,0.5c-0.7,0-1.1-0.5-1.1-1.1c0-0.7,0.5-1.2,1.2-1.2c0.4,0,0.5,0.2,0.7,0.2
				c0.1,0,0.1-0.1,0.2-0.2h0.1L-180.2,591.7L-180.2,591.7z"/>
			<path id="Fill-33-Copy" d="M-178.9,592.9c0,0.2,0.1,0.3,0.4,0.3v0.1h-1.2v-0.1c0.4,0,0.4-0.1,0.4-0.3v-1.4c0-0.3-0.1-0.4-0.4-0.4
				V591l0.8-0.1h0.1C-178.9,591-178.9,592.9-178.9,592.9z M-178.8,590c0,0.2-0.1,0.3-0.3,0.3s-0.3-0.1-0.3-0.3s0.2-0.3,0.3-0.3
				C-178.9,589.7-178.8,589.9-178.8,590L-178.8,590z"/>
			<path id="Fill-35-Copy" d="M-176.3,592.1c0,0.6-0.3,1.1-0.8,1.1s-0.8-0.5-0.8-1.1c0-0.7,0.3-1.1,0.8-1.1
				C-176.5,591-176.3,591.6-176.3,592.1 M-175.8,592.1c0-0.7-0.5-1.2-1.2-1.2s-1.2,0.5-1.2,1.2c0,0.7,0.5,1.2,1.2,1.2
				S-175.8,592.8-175.8,592.1"/>
			<path id="Fill-37-Copy" d="M-170.9,591.9h-0.1c-0.1-0.3-0.2-0.4-0.5-0.4h-0.9v1.4c0,0.2,0.1,0.3,0.3,0.3h0.6c0.5,0,0.7,0,0.9-0.5
				h0.1l-0.2,0.7h-2.7v-0.1c0.3,0,0.4-0.1,0.4-0.6v-2.3c0-0.5-0.1-0.6-0.4-0.6v-0.1h2.7v0.6h-0.1c-0.1-0.4-0.2-0.4-0.6-0.4h-1v1.6h1
				c0.3,0,0.4-0.1,0.4-0.4h0.1C-170.9,591.1-170.9,591.9-170.9,591.9z"/>
			<path id="Fill-39-Copy" d="M-168,592.9c0.2,0.2,0.3,0.3,0.5,0.3v0.1h-1.2v-0.1c0.2-0.1,0.2-0.2,0.1-0.3l-0.4-0.6l-0.4,0.5
				c-0.2,0.2-0.1,0.3,0.1,0.3v0.1h-0.9v-0.1c0.3,0,0.4-0.1,0.7-0.4l0.5-0.6l-0.5-0.7c-0.2-0.3-0.4-0.4-0.6-0.4V591h1.2v0.1
				c-0.2,0-0.3,0.2-0.1,0.4l0.3,0.4l0.3-0.4c0.2-0.2,0.2-0.4-0.1-0.4v-0.1h0.9v0.1c-0.3,0.1-0.4,0.1-0.7,0.4l-0.4,0.5L-168,592.9z"
				/>
			<path id="Fill-41-Copy" d="M-166.4,590.9h0.8v0.2h-0.8v1.5c0,0.3,0.2,0.5,0.4,0.5c0.2,0,0.3-0.1,0.4-0.2l0.1,0.1
				c-0.2,0.3-0.4,0.4-0.7,0.4c-0.4,0-0.7-0.3-0.7-0.7v-1.5h-0.4V591c0.3-0.2,0.6-0.4,0.8-0.8h0.1V590.9z"/>
			<path id="Fill-43-Copy" d="M-164.9,591.8c0-0.4,0.3-0.7,0.6-0.7c0.3,0,0.6,0.2,0.6,0.7H-164.9z M-163.2,591.9
				c0.1-0.5-0.5-0.9-1-0.9c-0.6,0-1.1,0.6-1.1,1.2c0,0.7,0.5,1.2,1.2,1.2c0.4,0,0.7-0.2,0.9-0.5v-0.3c-0.3,0.4-0.5,0.5-0.8,0.5
				c-0.3,0-0.9-0.3-0.9-1.3L-163.2,591.9L-163.2,591.9z"/>
			<path id="Fill-45-Copy" d="M-162,592.9c0,0.3,0.1,0.3,0.4,0.3v0.1h-1.2v-0.1c0.4,0,0.4-0.1,0.4-0.4v-1.2c0-0.3-0.1-0.4-0.5-0.4
				V591l0.8-0.1h0.1v0.5c0.4-0.4,0.6-0.5,0.8-0.5c0.2,0,0.3,0.1,0.4,0.2l-0.2,0.4c-0.2-0.1-0.4-0.2-0.5-0.2s-0.3,0.1-0.5,0.3V592.9z
				"/>
			<path id="Fill-47-Copy" d="M-159.4,592.9c0,0.2,0.1,0.3,0.4,0.3v0.1h-1.2v-0.1c0.4,0,0.4-0.1,0.4-0.3v-1.4c0-0.3-0.1-0.4-0.4-0.4
				V591l0.8-0.1h0.1V592.9z M-159.3,590c0,0.2-0.1,0.3-0.3,0.3s-0.3-0.1-0.3-0.3s0.1-0.3,0.3-0.3S-159.3,589.9-159.3,590L-159.3,590
				z"/>
			<path id="Fill-49-Copy" d="M-156.7,592.1c0,0.6-0.2,1.1-0.8,1.1c-0.5,0-0.8-0.5-0.8-1.1c0-0.7,0.3-1.1,0.8-1.1
				C-157,591-156.7,591.6-156.7,592.1 M-156.2,592.1c0-0.7-0.5-1.2-1.2-1.2c-0.7,0-1.2,0.5-1.2,1.2c0,0.7,0.5,1.2,1.2,1.2
				C-156.8,593.3-156.2,592.8-156.2,592.1"/>
			<path id="Fill-51-Copy" d="M-155,592.9c0,0.3,0.1,0.3,0.4,0.3v0.1h-1.2v-0.1c0.4,0,0.4-0.1,0.4-0.4v-1.2c0-0.3-0.1-0.4-0.5-0.4
				V591l0.8-0.1h0.1v0.5c0.4-0.4,0.6-0.5,0.8-0.5c0.1,0,0.3,0.1,0.4,0.2l-0.2,0.4c-0.2-0.1-0.4-0.2-0.5-0.2c-0.2,0-0.3,0.1-0.5,0.3
				C-155,591.6-155,592.9-155,592.9z"/>
			<path id="Fill-53-Copy" d="M-149.4,592.9c0,0.3-0.1,0.4-0.4,0.4c-0.8,0-1-0.6-1-1.2c0-0.6,0.3-0.9,0.7-0.9c0.2,0,0.5,0.2,0.7,0.4
				L-149.4,592.9L-149.4,592.9z M-149,589.2h-0.1l-0.8,0.1v0.1h0.2c0.2,0,0.3,0.1,0.3,0.4v1.4c-0.3-0.2-0.5-0.3-0.8-0.3
				c-0.6,0-1.1,0.5-1.1,1.1c0,0.5,0.4,1.2,1.4,1.2h1.4v-0.1c-0.3,0-0.4-0.1-0.4-0.3L-149,589.2L-149,589.2z"/>
			<path id="Fill-55-Copy" d="M-147.8,591.8c0-0.4,0.3-0.7,0.6-0.7c0.3,0,0.6,0.2,0.6,0.7H-147.8z M-146.1,591.9
				c0.1-0.5-0.5-0.9-1-0.9c-0.6,0-1.1,0.6-1.1,1.2c0,0.7,0.5,1.2,1.2,1.2c0.4,0,0.7-0.2,0.9-0.5v-0.3c-0.3,0.4-0.5,0.5-0.8,0.5
				c-0.3,0-0.9-0.3-0.9-1.3L-146.1,591.9L-146.1,591.9z"/>
			<path id="Fill-57-Copy" d="M-145.1,589.7c0-0.2-0.1-0.3-0.3-0.3h-0.2v-0.1l0.8-0.1h0.1v3.6c0,0.3,0.1,0.3,0.4,0.3h0.1v0.1h-1.3
				v-0.1h0.1c0.3,0,0.3-0.1,0.3-0.4L-145.1,589.7L-145.1,589.7z"/>
			<path id="Fill-59-Copy" d="M-141.4,589.7h0.5c0.7,0,0.9,0.5,0.9,0.9c0,0.5-0.4,0.8-0.9,0.8c-0.2,0-0.3,0-0.5-0.1V589.7z
				 M-141.4,591.6c0.3,0.1,0.4,0.1,0.6,0.1c0.8,0,1.3-0.4,1.3-0.9c0-0.5-0.4-1-1.5-1h-1.3v0.1c0.3,0,0.4,0.2,0.4,0.6v2.3
				c0,0.5-0.2,0.6-0.4,0.6v0.1h1.4v-0.1c-0.3,0-0.4-0.2-0.4-0.6L-141.4,591.6L-141.4,591.6z"/>
			<path id="Fill-61-Copy" d="M-138.8,591.8c0-0.4,0.3-0.7,0.6-0.7c0.3,0,0.6,0.2,0.6,0.7H-138.8z M-137.1,591.9
				c0.1-0.5-0.5-0.9-1-0.9c-0.6,0-1.1,0.6-1.1,1.2c0,0.7,0.5,1.2,1.2,1.2c0.4,0,0.7-0.2,0.9-0.5v-0.3c-0.3,0.4-0.5,0.5-0.8,0.5
				c-0.3,0-0.9-0.3-0.9-1.3L-137.1,591.9L-137.1,591.9z"/>
			<path id="Fill-63-Copy" d="M-135.8,592.9c0,0.3,0.1,0.3,0.4,0.3v0.1h-1.2v-0.1c0.4,0,0.4-0.1,0.4-0.4v-1.2c0-0.3-0.1-0.4-0.5-0.4
				V591l0.8-0.1h0.1v0.5c0.4-0.4,0.6-0.5,0.8-0.5c0.1,0,0.3,0.1,0.4,0.2l-0.2,0.4c-0.2-0.1-0.4-0.2-0.5-0.2s-0.3,0.1-0.5,0.3V592.9z
				"/>
			<path id="Fill-65-Copy" d="M-132.3,589.2l-0.7,1.3h-0.1l0.4-1.3H-132.3z M-131.9,592.8c0,0.3,0.1,0.3,0.4,0.3v0.1l-0.8,0.1v-0.4
				l0,0c-0.2,0.3-0.5,0.5-0.8,0.5c-0.5,0-0.7-0.4-0.7-0.8v-1.2c0-0.2-0.1-0.3-0.4-0.3v-0.1l0.7-0.1h0.1v1.6c0,0.3,0.2,0.5,0.5,0.5
				c0.2,0,0.4-0.1,0.6-0.4v-1.2c0-0.3-0.1-0.4-0.5-0.4v-0.1l0.8-0.1h0.1L-131.9,592.8L-131.9,592.8z"/>
		</g>
		<path id="Fill-80-Copy" d="M-138.2,575.4v6.1c0,0.7,0,1.4,0.1,2.1c0.1,0.9,0.5,1.8,1.1,2.4c0.2,0.2,0.4,0.4,0.7,0.5
			c0.7,0.4,1.4,0.5,2.2,0.4c0.8-0.1,1.5-0.4,2.1-1c0.6-0.6,1-1.4,1.1-2.2c0.1-0.8,0.1-1.5,0.1-2.3v-6.1h-1.4v6.1v0.6
			c0,0.5-0.1,0.9-0.1,1.4c-0.1,0.5-0.3,1-0.7,1.4c-0.3,0.3-0.6,0.4-0.9,0.5c-0.6,0.2-1.3,0-1.8-0.4c-0.1-0.1-0.2-0.2-0.3-0.3
			c-0.3-0.4-0.5-0.8-0.5-1.3c-0.1-0.6-0.1-1.2-0.1-1.8v-6.1L-138.2,575.4L-138.2,575.4z"/>
		<path id="Fill-82-Copy" d="M-147.2,586.8h1.5V582h0.7l3.1,4.8h1.8l-3.2-4.9c0.2-0.1,0.3-0.1,0.5-0.2c0.6-0.2,1.1-0.7,1.4-1.3
			c0.4-0.8,0.5-1.6,0.3-2.5c-0.1-0.7-0.4-1.4-0.8-1.8c-0.4-0.3-0.8-0.6-1.2-0.6c-0.5-0.1-0.9-0.1-1.4-0.1h-2.5L-147.2,586.8
			L-147.2,586.8z M-145.8,580.6v-3.6h1.1c0.2,0,0.5,0,0.7,0.1c0.2,0.1,0.4,0.1,0.6,0.2c0.3,0.2,0.6,0.5,0.7,0.8
			c0.2,0.6,0.1,1.1-0.1,1.7c-0.2,0.4-0.6,0.7-1,0.8c-0.2,0.1-0.3,0.1-0.4,0.1c-0.2,0.1-0.4,0.1-0.7,0.1H-145.8z"/>
		<polygon id="Fill-84-Copy" points="-156.3,586.8 -150.4,586.8 -150.4,585.3 -154.7,585.3 -154.7,581.3 -150.4,581.3 -150.4,579.8 
			-154.7,579.8 -154.7,576.9 -150.4,576.9 -150.4,575.4 -156.3,575.4 		"/>
		<path id="Fill-86-Copy" d="M-164.3,586.8h1.7v-4.6h0.7c0.6,0,1.1-0.1,1.7-0.2s1.1-0.4,1.6-0.8c0.9-0.9,1.2-2.1,1-3.3
			c-0.2-1.4-1.4-2.4-2.8-2.5c-0.4-0.1-0.8-0.1-1.3-0.1h-2.5V586.8z M-162.6,576.9h1.2c0.4,0,0.8,0.1,1.2,0.3c0.4,0.2,0.7,0.6,0.8,1
			c0.1,0.4,0.1,0.8-0.1,1.2c-0.2,0.5-0.5,0.9-1,1c-0.4,0.1-0.8,0.2-1.2,0.2h-0.9V576.9z"/>
		<path id="Fill-88-Copy" d="M-169.5,586.8h2.8l-3-5.8l2.8-5.6h-2.7l-1,2.4v0.1c-0.2,0.4-0.3,0.9-0.4,1.4c-0.1-0.5-0.3-0.9-0.4-1.4
			l-1-2.4h-2.8l2.8,5.6l-3,5.8h3l0.9-2.3c0.2-0.6,0.4-1.1,0.5-1.7c0.1,0.6,0.3,1.1,0.5,1.7L-169.5,586.8z"/>
		<polygon id="Fill-90-Copy" points="-183.3,586.8 -177.8,586.8 -177.8,584.6 -180.8,584.6 -180.8,581.9 -178.1,581.9 -178.1,579.8 
			-180.8,579.8 -180.8,577.5 -177.8,577.5 -177.8,575.4 -183.3,575.4 		"/>
		<path id="Fill-92-Copy" d="M-197.3,586.8h2.6l0.4-5.3l0.1-0.7c0.1-1.1,0.2-2.2,0.2-3.3l1.6,9.3h1.9l1.7-9.3c0,1.1,0.1,2.3,0.1,3.4
			l0.1,0.6l0.3,5.3h2.7l-1.1-11.4h-3.4l-0.8,4.4c-0.2,1.2-0.3,2.4-0.5,3.7c-0.1-1.2-0.2-2.4-0.4-3.7l-0.7-4.4h-3.3L-197.3,586.8z"/>
		<path id="Combined-Shape-Copy-2" d="M-199.1,581.4L-199.1,581.4c0.1,1.1-0.2,2.2-0.7,3.3c-0.4,0.7-0.9,1.4-1.6,1.8
			c-0.7,0.4-1.5,0.6-2.3,0.6c-0.3,0-0.6,0-0.9-0.1c-0.9-0.2-1.7-0.6-2.3-1.3c-0.6-0.7-0.9-1.5-1.1-2.3c-0.2-0.7-0.2-1.4-0.2-2.1
			c0-1,0.2-2,0.5-3c0.3-0.8,0.8-1.5,1.5-2c0.8-0.6,1.7-0.9,2.7-0.8c0.3,0,0.6,0,0.9,0.1c0.9,0.2,1.7,0.6,2.3,1.4s1,1.5,1.1,2.4
			C-199.3,580-199.1,580.7-199.1,581.4z M-203.8,584.9c0.1,0,0.2,0,0.3,0c0.4-0.1,0.7-0.2,0.9-0.5c0.2-0.2,0.4-0.5,0.5-0.7
			c0.2-0.7,0.4-1.4,0.4-2.1v-0.4c0-0.7-0.1-1.3-0.2-2c-0.1-0.3-0.2-0.6-0.4-0.9c-0.2-0.2-0.3-0.4-0.5-0.6c-0.3-0.2-0.6-0.3-0.9-0.3
			c-0.1,0-0.2,0-0.3,0c-0.4,0.1-0.7,0.2-0.9,0.5c-0.2,0.2-0.3,0.5-0.4,0.7c-0.2,0.7-0.4,1.4-0.4,2.1v0.4c0,0.7,0.1,1.3,0.2,2
			c0.1,0.3,0.2,0.6,0.4,0.9c0.2,0.3,0.4,0.5,0.7,0.7C-204.3,584.8-204,585-203.8,584.9z"/>
		<path id="Fill-96-Copy" d="M-210.2,586.8v-2.3c-0.4,0.2-0.9,0.3-1.4,0.3c-0.4,0-0.9-0.1-1.2-0.3c-0.5-0.3-0.9-0.6-1.1-1
			c-0.4-0.7-0.6-1.5-0.6-2.3c0-0.3,0-0.7,0.1-1c0.1-0.7,0.5-1.5,1-2c0.5-0.5,1.1-0.7,1.7-0.7h0.2c0.5,0,1,0.1,1.4,0.3v-2.1
			c-0.5-0.2-1.1-0.3-1.6-0.3c-0.5,0-1,0.1-1.5,0.2c-1.2,0.3-2.2,1-3,2c-0.1,0.2-0.2,0.3-0.3,0.4c-0.6,1-0.8,2.2-0.8,3.4
			c-0.1,1.1,0.3,2.3,0.8,3.3c0.6,1,1.5,1.8,2.6,2.1c0.7,0.3,1.4,0.4,2.1,0.4C-211.2,587.1-210.7,587-210.2,586.8"/>
	</g>
</g>
</svg>
