<?xml version="1.0" encoding="utf-8"?>
<!-- Generator: Adobe Illustrator 19.0.0, SVG Export Plug-In . SVG Version: 6.00 Build 0)  -->
<svg version="1.1" id="Layer_1" xmlns="http://www.w3.org/2000/svg" xmlns:xlink="http://www.w3.org/1999/xlink" x="0px" y="0px"
	 viewBox="-169 386.9 256 68" style="enable-background:new -169 386.9 256 68;" xml:space="preserve">
<style type="text/css">
	.st0{fill:#CA0538;}
</style>
<title>Group</title>
<desc>Created with Sketch.</desc>
<path id="Combined-Shape-Copy" class="st0" d="M63.1,405.6c0.4,0,0.7,0,1.1,0c2.2,0,4.3,0.2,6.2,0.7c11.3,2.5,17.9,11.6,15.6,22.6
	C83,442.5,67.9,453.9,52,454.5l1.3-6.1c13.9-0.5,27.2-10.5,29.7-22.4c1.5-7.2-1.3-13.4-6.9-17c4.3,3.2,6.4,8.2,5.2,14.1
	c-2.1,10.1-13.5,18.7-25.4,19.2h0l1.3-6.1h0c9.9-0.4,19.4-7.5,21.2-16c1.4-6.7-2.5-12.3-9.2-14c-1.6-0.3-3.3-0.5-5-0.6
	c-0.2,0-0.3,0-0.5,0h0v0h0c0.1,0,0.3,0,0.4,0C63.7,405.6,63.4,405.6,63.1,405.6L63,406h0c-9.9,0.4-19.4,7.5-21.2,16
	c-1.1,5.2,1,9.6,5,12.2c2.8,1.1,6.1,1.7,9.7,1.7c-3.1,0.1-6-0.3-8.6-1c2.4,1.2,5.3,1.9,8.7,1.8h0v0h0c-4.5,0.2-8.5-0.8-11.5-2.7
	c-8.7-3.6-13.5-11.7-11.5-21.3c2.9-13.5,18.1-24.9,33.9-25.5l-1.3,6.1c-13.9,0.5-27.2,10.5-29.7,22.4c-1.4,6.7,0.9,12.6,5.8,16.3
	c-3.1-3.2-4.5-7.6-3.4-12.6c2.1-10.1,13.5-18.7,25.4-19.2h0L63.1,405.6z M64.3,405.6c0.9,0,1.9,0.1,2.8,0.2
	C66.2,405.7,65.3,405.6,64.3,405.6z"/>
<g>
	<g>
		<path id="Fill-1-Copy" d="M-165.2,442.5h-0.2c-0.1-1.1-0.9-1.5-1.6-1.5c-0.8,0-1.3,0.4-1.3,1.1c0,1.3,1.8,1.7,2.9,2.7
			c0.5,0.5,0.6,1,0.6,1.4c0,1.1-0.9,2-2,2c-0.8,0-1.4-0.4-1.6-0.4c-0.1,0-0.2,0.1-0.3,0.3h-0.2v-1.9h0.2c0,1.3,1.1,1.8,1.7,1.8
			c0.9,0,1.4-0.5,1.4-1.3c0-1.2-1.9-1.8-2.7-2.6c-0.4-0.4-0.6-0.9-0.6-1.5c0-1.1,0.8-1.8,2-1.8c0.8,0,1.1,0.3,1.4,0.3
			c0.1,0,0.1,0,0.2-0.2h0.2V442.5z"/>
		<path id="Fill-3-Copy" d="M-159.9,446c0,1.1-0.5,2.1-1.5,2.1c-1,0-1.5-0.9-1.5-2.1c0-1.3,0.6-2.1,1.5-2.1
			C-160.4,443.9-159.9,444.9-159.9,446 M-159,446c0-1.3-1-2.3-2.4-2.3c-1.4,0-2.4,1-2.4,2.3c0,1.3,1,2.3,2.4,2.3
			C-160,448.3-159,447.3-159,446"/>
		<path id="Fill-5-Copy" d="M-154.4,445.2h-0.2c-0.2-0.8-0.8-1.3-1.5-1.3c-0.9,0-1.5,0.7-1.5,1.8c0,1.2,0.8,2.2,1.7,2.2
			c0.5,0,1.2-0.3,1.7-0.9v0.3c-0.5,0.6-1.2,1-2,1c-1.3,0-2.2-0.9-2.2-2.2c0-1.4,1-2.4,2.3-2.4c0.7,0,1,0.3,1.3,0.3
			c0.1,0,0.2-0.1,0.3-0.3h0.2V445.2z"/>
		<path id="Fill-7-Copy" d="M-152.3,441.4c-0.3,0-0.6,0.2-0.6,0.5c0,0.3,0.3,0.5,0.6,0.5c0.3,0,0.5-0.2,0.5-0.5
			C-151.8,441.7-152,441.4-152.3,441.4L-152.3,441.4z M-151.9,443.7h-0.2l-1.5,0.1v0.2c0.6,0,0.8,0,0.8,0.7v2.7
			c0,0.5-0.2,0.6-0.8,0.6v0.2h2.4v-0.2c-0.6,0-0.7-0.2-0.7-0.6V443.7z"/>
		<path id="Fill-9-Copy" d="M-149.9,445.3c0.1-0.8,0.5-1.4,1.2-1.4c0.6,0,1.2,0.4,1.2,1.4H-149.9z M-146.6,445.5
			c0.1-1-0.9-1.8-1.9-1.8c-1.2,0-2.2,1.1-2.2,2.4c0,1.3,1,2.3,2.4,2.3c0.8,0,1.3-0.3,1.8-0.9V447c-0.6,0.7-0.9,0.9-1.6,0.9
			c-0.6,0-1.8-0.5-1.8-2.5H-146.6z"/>
		<path id="Fill-11-Copy" d="M-141.5,447.4c0,0.5-0.2,0.7-0.7,0.7c-1.5,0-1.9-1.2-1.9-2.3c0-1.1,0.6-1.8,1.4-1.8
			c0.5,0,0.9,0.3,1.3,0.7V447.4z M-140.7,440.4h-0.2l-1.5,0.1v0.2h0.2c0.4,0,0.6,0.1,0.6,0.8v2.7c-0.6-0.4-1-0.5-1.5-0.5
			c-1.2,0-2.1,1-2.1,2.2c0,1,0.7,2.3,2.6,2.3h2.6v-0.2c-0.6,0-0.7-0.2-0.7-0.6V440.4z"/>
		<path id="Fill-13-Copy" d="M-136.7,447.2c-0.2,0.4-0.6,0.6-0.9,0.6c-0.4,0-0.7-0.4-0.7-0.8c0-0.9,0.8-0.9,1.6-1.2V447.2z
			 M-135.9,445.2c0-1.2-0.9-1.6-1.6-1.6c-0.8,0-1.4,0.5-1.6,1.4l0.2,0.1c0.2-0.6,0.7-0.9,1.2-0.9c0.6,0,1,0.4,1,1.1v0.3
			c-0.7,0.4-2.4,0.4-2.4,1.6c0,0.6,0.6,1.2,1.2,1.2c0.5,0,0.7-0.2,1.2-0.6c0.1,0.4,0.4,0.6,0.7,0.6c0.5,0,0.8-0.3,0.9-0.9h-0.2
			c-0.1,0.3-0.2,0.4-0.3,0.4c-0.2,0-0.3-0.2-0.3-0.7V445.2z"/>
		<path id="Fill-15-Copy" d="M-130.8,447.4c0,0.5-0.2,0.7-0.7,0.7c-1.5,0-1.9-1.2-1.9-2.3c0-1.1,0.6-1.8,1.4-1.8
			c0.4,0,0.9,0.3,1.3,0.7V447.4z M-129.9,440.4h-0.2l-1.5,0.1v0.2h0.3c0.4,0,0.6,0.1,0.6,0.8v2.7c-0.6-0.4-1-0.5-1.5-0.5
			c-1.2,0-2.1,1-2.1,2.2c0,1,0.7,2.3,2.6,2.3h2.6v-0.2c-0.6,0-0.7-0.2-0.7-0.6V440.4z"/>
		<path id="Fill-17-Copy" d="M-121.2,447.4c0,0.5-0.2,0.7-0.7,0.7c-1.5,0-1.9-1.2-1.9-2.3c0-1.1,0.6-1.8,1.4-1.8
			c0.5,0,0.9,0.3,1.3,0.7V447.4z M-120.3,440.4h-0.2l-1.5,0.1v0.2h0.2c0.4,0,0.6,0.1,0.6,0.8v2.7c-0.6-0.4-1-0.5-1.5-0.5
			c-1.2,0-2.1,1-2.1,2.2c0,1,0.7,2.3,2.6,2.3h2.6v-0.2c-0.6,0-0.7-0.2-0.7-0.6V440.4z"/>
		<path id="Fill-19-Copy" d="M-118.1,445.3c0.1-0.8,0.5-1.4,1.2-1.4c0.6,0,1.2,0.4,1.2,1.4H-118.1z M-114.8,445.5
			c0.1-1-0.9-1.8-1.9-1.8c-1.2,0-2.2,1.1-2.2,2.4c0,1.3,1,2.3,2.4,2.3c0.8,0,1.3-0.3,1.8-0.9V447c-0.6,0.7-0.9,0.9-1.6,0.9
			c-0.6,0-1.8-0.5-1.8-2.5H-114.8z"/>
		<path id="Fill-21-Copy" d="M-103.3,443c-0.4-1.3-1.1-1.9-2.3-1.9c-1.7,0-2.7,1.4-2.7,3.2c0,2.1,1.1,3.6,2.7,3.6
			c1.1,0,2-0.5,2.5-1.6l0.2,0.2c-0.5,1.1-1.6,1.8-3,1.8c-1.7,0-3.5-1.2-3.5-3.6c0-2.3,1.6-3.9,3.7-3.9c0.9,0,1.6,0.3,2,0.3
			c0.2,0,0.3-0.1,0.4-0.2h0.2v2.1H-103.3z"/>
		<path id="Fill-23-Copy" d="M-97.7,446c0,1.1-0.5,2.1-1.5,2.1c-1,0-1.5-0.9-1.5-2.1c0-1.3,0.6-2.1,1.5-2.1
			C-98.2,443.9-97.7,444.9-97.7,446 M-96.8,446c0-1.3-1-2.3-2.4-2.3c-1.4,0-2.4,1-2.4,2.3c0,1.3,1,2.3,2.4,2.3
			C-97.8,448.3-96.8,447.3-96.8,446"/>
		<path id="Fill-25-Copy" d="M-88,447.5c0,0.4,0.1,0.6,0.7,0.6v0.2h-2.3v-0.2c0.6,0,0.8-0.1,0.8-0.8v-2.1c0-0.6-0.4-0.9-1-0.9
			c-0.5,0-0.9,0.3-1.3,0.8v2.4c0,0.5,0.1,0.6,0.7,0.6v0.2h-2.3v-0.2c0.6,0,0.7-0.1,0.7-0.8v-2c0-0.7-0.5-1-0.9-1
			c-0.5,0-1,0.3-1.3,0.8v2.4c0,0.4,0.2,0.6,0.7,0.6v0.2h-2.3v-0.2c0.5,0,0.7-0.1,0.7-0.7v-2.6c0-0.5-0.2-0.7-0.6-0.7h-0.3v-0.2
			l1.5-0.1h0.2v0.9h0c0.4-0.6,1-0.9,1.6-0.9c0.6,0,1.2,0.3,1.4,1c0.5-0.7,1-1,1.6-1c0.6,0,1.5,0.4,1.5,1.5V447.5z"/>
		<path id="Fill-27-Copy" d="M-85.4,445.3c0.1-0.8,0.5-1.4,1.2-1.4c0.6,0,1.2,0.4,1.2,1.4H-85.4z M-82.1,445.5
			c0.1-1-0.9-1.8-1.9-1.8c-1.2,0-2.2,1.1-2.2,2.4c0,1.3,1,2.3,2.4,2.3c0.8,0,1.3-0.3,1.8-0.9V447c-0.6,0.7-1,0.9-1.6,0.9
			c-0.6,0-1.8-0.5-1.8-2.5H-82.1z"/>
		<path id="Fill-29-Copy" d="M-79.7,447.4c0,0.5,0.1,0.6,0.7,0.6v0.2h-2.3v-0.2c0.7,0,0.7-0.2,0.7-0.8v-2.4c0-0.6-0.2-0.7-0.9-0.7
			v-0.2l1.5-0.1h0.2v1c0.8-0.7,1.2-1,1.5-1c0.2,0,0.6,0.1,0.8,0.3l-0.3,0.8c-0.4-0.2-0.7-0.4-1-0.4c-0.3,0-0.5,0.1-0.9,0.5V447.4z"
			/>
		<path id="Fill-31-Copy" d="M-72.6,445.2h-0.2c-0.2-0.8-0.8-1.3-1.5-1.3c-0.9,0-1.5,0.7-1.5,1.8c0,1.2,0.8,2.2,1.7,2.2
			c0.5,0,1.2-0.3,1.7-0.9v0.3c-0.5,0.6-1.2,1-2,1c-1.3,0-2.2-0.9-2.2-2.2c0-1.4,1-2.4,2.3-2.4c0.7,0,1,0.3,1.3,0.3
			c0.1,0,0.2-0.1,0.3-0.3h0.2V445.2z"/>
		<path id="Fill-33-Copy" d="M-70,447.5c0,0.4,0.1,0.6,0.7,0.6v0.2h-2.4v-0.2c0.7,0,0.8-0.1,0.8-0.6v-2.7c0-0.6-0.2-0.7-0.8-0.7
			v-0.2l1.5-0.1h0.2V447.5z M-69.9,442c0,0.3-0.2,0.5-0.5,0.5c-0.3,0-0.6-0.2-0.6-0.5s0.3-0.5,0.6-0.5
			C-70.1,441.4-69.9,441.7-69.9,442L-69.9,442z"/>
		<path id="Fill-35-Copy" d="M-65,446c0,1.1-0.5,2.1-1.5,2.1c-1,0-1.5-0.9-1.5-2.1c0-1.3,0.6-2.1,1.5-2.1
			C-65.5,443.9-65,444.9-65,446 M-64.1,446c0-1.3-1-2.3-2.4-2.3c-1.4,0-2.4,1-2.4,2.3c0,1.3,1,2.3,2.4,2.3
			C-65.1,448.3-64.1,447.3-64.1,446"/>
		<path id="Fill-37-Copy" d="M-54.6,445.6h-0.2c-0.1-0.6-0.3-0.7-1-0.7h-1.8v2.6c0,0.4,0.1,0.5,0.5,0.5h1.2c1,0,1.3,0,1.7-1h0.2
			l-0.3,1.3h-5.1v-0.2c0.6,0,0.8-0.2,0.8-1.1v-4.5c0-0.9-0.2-1.1-0.8-1.1v-0.2h5.1v1.2h-0.1c-0.2-0.8-0.4-0.8-1.2-0.8h-2v3.1h2
			c0.5,0,0.7-0.1,0.8-0.7h0.2V445.6z"/>
		<path id="Fill-39-Copy" d="M-49.2,447.5c0.3,0.4,0.6,0.5,1,0.5v0.2h-2.3v-0.2c0.4-0.1,0.4-0.3,0.2-0.5l-0.8-1.1l-0.8,1
			c-0.3,0.3-0.2,0.6,0.1,0.6v0.2h-1.8v-0.2c0.6,0,0.8-0.1,1.3-0.7l1-1.1l-1-1.4c-0.4-0.6-0.7-0.7-1.2-0.7v-0.2h2.4v0.2
			c-0.4,0-0.5,0.3-0.2,0.7l0.6,0.8l0.6-0.7c0.3-0.4,0.3-0.7-0.1-0.7v-0.2h1.7v0.2c-0.6,0.1-0.8,0.2-1.3,0.8l-0.7,0.9L-49.2,447.5z"
			/>
		<path id="Fill-41-Copy" d="M-46.1,443.7h1.5v0.3h-1.5v2.8c0,0.6,0.3,0.9,0.8,0.9c0.3,0,0.6-0.1,0.8-0.4l0.1,0.2
			c-0.4,0.5-0.8,0.7-1.3,0.7c-0.7,0-1.3-0.5-1.3-1.3V444h-0.8v-0.2c0.6-0.3,1.1-0.8,1.5-1.6h0.2V443.7z"/>
		<path id="Fill-43-Copy" d="M-43.1,445.3c0-0.8,0.5-1.4,1.2-1.4c0.6,0,1.2,0.4,1.2,1.4H-43.1z M-39.9,445.5c0.1-1-0.9-1.8-1.9-1.8
			c-1.2,0-2.2,1.1-2.2,2.4c0,1.3,1,2.3,2.4,2.3c0.8,0,1.3-0.3,1.8-0.9V447c-0.6,0.7-0.9,0.9-1.6,0.9c-0.6,0-1.8-0.5-1.8-2.5H-39.9z"
			/>
		<path id="Fill-45-Copy" d="M-37.6,447.4c0,0.5,0.1,0.6,0.7,0.6v0.2h-2.3v-0.2c0.7,0,0.7-0.2,0.7-0.8v-2.4c0-0.6-0.2-0.7-0.9-0.7
			v-0.2l1.5-0.1h0.2v1c0.8-0.7,1.2-1,1.5-1c0.3,0,0.6,0.1,0.8,0.3l-0.3,0.8c-0.4-0.2-0.7-0.4-1-0.4c-0.3,0-0.5,0.1-0.9,0.5V447.4z"
			/>
		<path id="Fill-47-Copy" d="M-32.6,447.5c0,0.4,0.1,0.6,0.7,0.6v0.2h-2.4v-0.2c0.7,0,0.8-0.1,0.8-0.6v-2.7c0-0.6-0.2-0.7-0.8-0.7
			v-0.2l1.5-0.1h0.2V447.5z M-32.4,442c0,0.3-0.2,0.5-0.5,0.5s-0.6-0.2-0.6-0.5s0.2-0.5,0.6-0.5S-32.4,441.7-32.4,442L-32.4,442z"/>
		<path id="Fill-49-Copy" d="M-27.4,446c0,1.1-0.4,2.1-1.5,2.1c-1,0-1.5-0.9-1.5-2.1c0-1.3,0.6-2.1,1.5-2.1
			C-27.9,443.9-27.4,444.9-27.4,446 M-26.5,446c0-1.3-1-2.3-2.4-2.3c-1.4,0-2.4,1-2.4,2.3c0,1.3,1,2.3,2.4,2.3
			C-27.5,448.3-26.5,447.3-26.5,446"/>
		<path id="Fill-51-Copy" d="M-24.1,447.4c0,0.5,0.1,0.6,0.7,0.6v0.2h-2.3v-0.2c0.7,0,0.7-0.2,0.7-0.8v-2.4c0-0.6-0.2-0.7-0.9-0.7
			v-0.2l1.5-0.1h0.2v1c0.8-0.7,1.2-1,1.5-1c0.2,0,0.6,0.1,0.8,0.3l-0.3,0.8c-0.4-0.2-0.7-0.4-1-0.4c-0.3,0-0.5,0.1-0.9,0.5V447.4z"
			/>
		<path id="Fill-53-Copy" d="M-13.4,447.4c0,0.5-0.2,0.7-0.7,0.7c-1.5,0-1.9-1.2-1.9-2.3c0-1.1,0.5-1.8,1.4-1.8
			c0.4,0,0.9,0.3,1.3,0.7V447.4z M-12.5,440.4h-0.2l-1.5,0.1v0.2h0.3c0.4,0,0.6,0.1,0.6,0.8v2.7c-0.6-0.4-1-0.5-1.5-0.5
			c-1.2,0-2.1,1-2.1,2.2c0,1,0.7,2.3,2.6,2.3h2.6v-0.2c-0.6,0-0.7-0.2-0.7-0.6V440.4z"/>
		<path id="Fill-55-Copy" d="M-10.3,445.3c0-0.8,0.5-1.4,1.2-1.4c0.6,0,1.2,0.4,1.2,1.4H-10.3z M-7,445.5c0.1-1-0.9-1.8-1.9-1.8
			c-1.2,0-2.2,1.1-2.2,2.4c0,1.3,1,2.3,2.4,2.3c0.8,0,1.3-0.3,1.8-0.9V447c-0.6,0.7-0.9,0.9-1.6,0.9c-0.6,0-1.8-0.5-1.8-2.5H-7z"/>
		<path id="Fill-57-Copy" d="M-5.1,441.4c0-0.4-0.1-0.6-0.6-0.6H-6v-0.2l1.5-0.1h0.2v7c0,0.5,0.1,0.6,0.7,0.6h0.1v0.2H-6v-0.2h0.2
			c0.5,0,0.6-0.2,0.6-0.8V441.4z"/>
		<path id="Fill-59-Copy" d="M2.1,441.4H3c1.3,0,1.7,1,1.7,1.8c0,1-0.7,1.5-1.7,1.5c-0.4,0-0.6,0-0.9-0.1V441.4z M2.1,444.9
			c0.5,0.1,0.8,0.1,1.1,0.1c1.6,0,2.5-0.7,2.5-1.8c0-1-0.8-2-2.8-2H0.4v0.2c0.6,0,0.8,0.3,0.8,1.1v4.5c0,0.9-0.3,1.1-0.8,1.1v0.2H3
			v-0.2c-0.6,0-0.8-0.3-0.8-1.1V444.9z"/>
		<path id="Fill-61-Copy" d="M7,445.3c0-0.8,0.5-1.4,1.2-1.4c0.6,0,1.2,0.4,1.2,1.4H7z M10.3,445.5c0.1-1-0.9-1.8-1.9-1.8
			c-1.2,0-2.2,1.1-2.2,2.4c0,1.3,1,2.3,2.4,2.3c0.8,0,1.3-0.3,1.8-0.9V447c-0.6,0.7-0.9,0.9-1.6,0.9c-0.6,0-1.8-0.5-1.8-2.5H10.3z"
			/>
		<path id="Fill-63-Copy" d="M12.8,447.4c0,0.5,0.2,0.6,0.7,0.6v0.2h-2.3v-0.2c0.7,0,0.7-0.2,0.7-0.8v-2.4c0-0.6-0.2-0.7-0.9-0.7
			v-0.2l1.5-0.1h0.2v1c0.8-0.7,1.2-1,1.5-1c0.2,0,0.6,0.1,0.8,0.3l-0.3,0.8c-0.4-0.2-0.7-0.4-1-0.4c-0.3,0-0.5,0.1-0.9,0.5V447.4z"
			/>
		<path id="Fill-65-Copy" d="M19.5,440.3l-1.3,2.5H18l0.8-2.5H19.5z M20.4,447.3c0,0.5,0.2,0.6,0.8,0.6v0.2l-1.6,0.1v-0.8h0
			c-0.4,0.6-0.9,0.9-1.5,0.9c-0.9,0-1.4-0.7-1.4-1.5v-2.3c0-0.4-0.2-0.6-0.8-0.6v-0.2l1.4-0.1h0.2v3.1c0,0.6,0.4,1,1,1
			c0.4,0,0.8-0.2,1.2-0.7v-2.4c0-0.6-0.1-0.7-0.9-0.7v-0.2l1.5-0.1h0.2V447.3z"/>
	</g>
	<path id="Fill-80-Copy" d="M8.1,413.8v11.7c0,1.3,0,2.7,0.2,4c0.1,1.8,0.9,3.5,2.1,4.7c0.4,0.4,0.8,0.7,1.3,1
		c1.3,0.7,2.7,1,4.2,0.8c1.5-0.1,2.9-0.8,4-1.9c1.1-1.2,1.9-2.7,2.1-4.3c0.2-1.5,0.2-2.9,0.2-4.4v-11.7h-2.7v11.7l0,1.2
		c0,0.9-0.1,1.8-0.2,2.7c-0.1,1-0.6,1.9-1.3,2.6c-0.5,0.5-1.1,0.8-1.8,1c-1.2,0.3-2.5,0-3.4-0.8c-0.2-0.2-0.4-0.4-0.6-0.6
		c-0.5-0.7-0.9-1.6-1-2.5c-0.1-1.2-0.2-2.4-0.2-3.5v-11.7H8.1z"/>
	<path id="Fill-82-Copy" d="M-9.2,435.8h2.8v-9.2H-5l6,9.2h3.5l-6.2-9.5c0.3-0.1,0.6-0.2,0.9-0.3c1.2-0.4,2.1-1.3,2.6-2.5
		c0.7-1.5,0.9-3.1,0.6-4.8c-0.1-1.3-0.7-2.6-1.6-3.5c-0.7-0.6-1.5-1.1-2.4-1.2c-0.9-0.1-1.7-0.2-2.6-0.2h-4.9V435.8z M-6.4,423.8v-7
		h2.1c0.4,0,0.9,0,1.3,0.1c0.4,0.1,0.7,0.1,1.1,0.3c0.6,0.3,1.1,0.9,1.3,1.5c0.3,1.1,0.2,2.2-0.2,3.3c-0.4,0.8-1.1,1.3-1.9,1.5
		c-0.3,0.1-0.5,0.1-0.8,0.2c-0.4,0.1-0.8,0.1-1.3,0.1H-6.4z"/>
	<polygon id="Fill-84-Copy" points="-26.6,435.8 -15.3,435.8 -15.3,432.8 -23.6,432.8 -23.6,425.2 -15.3,425.2 -15.3,422.3 
		-23.6,422.3 -23.6,416.8 -15.3,416.8 -15.3,413.8 -26.6,413.8 	"/>
	<path id="Fill-86-Copy" d="M-42,435.8h3.2V427h1.3c1.1,0,2.1-0.1,3.2-0.3c1.1-0.2,2.2-0.7,3-1.5c1.7-1.7,2.4-4.1,1.9-6.4
		c-0.4-2.6-2.6-4.7-5.3-4.9c-0.8-0.1-1.6-0.1-2.5-0.1H-42V435.8z M-38.8,416.8h2.3c0.8,0,1.6,0.1,2.4,0.5c0.8,0.3,1.4,1.1,1.6,1.9
		c0.2,0.8,0.1,1.6-0.1,2.4c-0.3,1-1,1.7-2,2c-0.8,0.2-1.6,0.4-2.4,0.3l-1.8,0V416.8z"/>
	<path id="Fill-88-Copy" d="M-51.9,435.8h5.4l-5.7-11.1l5.3-10.8H-52l-1.9,4.6l0,0.1c-0.3,0.8-0.6,1.7-0.8,2.6
		c-0.2-0.9-0.5-1.8-0.8-2.6l-1.9-4.6h-5.3l5.3,10.8l-5.8,11.1h5.7l1.7-4.5c0.4-1.1,0.7-2.1,0.9-3.2c0.2,1.1,0.5,2.2,1,3.2
		L-51.9,435.8z"/>
	<polygon id="Fill-90-Copy" points="-78.5,435.8 -68,435.8 -68,431.5 -73.7,431.5 -73.7,426.3 -68.5,426.3 -68.5,422.3 -73.7,422.3 
		-73.7,417.9 -68,417.9 -68,413.8 -78.5,413.8 	"/>
	<path id="Fill-92-Copy" d="M-105.5,435.8h5l0.8-10.1l0.1-1.4c0.2-2.1,0.3-4.3,0.3-6.4l3.1,17.9h3.6l3.3-17.8c0,2.2,0.1,4.4,0.2,6.6
		l0.1,1.1l0.5,10.2h5.1l-2.1-21.9H-92l-1.6,8.4c-0.4,2.3-0.6,4.7-0.9,7.1c-0.2-2.4-0.4-4.7-0.8-7.1l-1.3-8.4h-6.4L-105.5,435.8z"/>
	<path id="Combined-Shape-Copy-2" d="M-109,425.4L-109,425.4c0.1,2.2-0.4,4.3-1.3,6.3c-0.7,1.4-1.8,2.6-3.1,3.5
		c-1.3,0.8-2.9,1.2-4.4,1.2c-0.6,0-1.2,0-1.8-0.1c-1.7-0.3-3.3-1.2-4.4-2.5c-1.1-1.3-1.8-2.8-2.1-4.5c-0.3-1.3-0.4-2.7-0.4-4
		c0-2,0.3-3.9,0.9-5.7c0.6-1.5,1.5-2.9,2.8-3.9c1.5-1.1,3.3-1.7,5.1-1.6c0.6,0,1.2,0,1.8,0.1c1.7,0.3,3.3,1.2,4.4,2.6
		c1.1,1.4,1.9,2.9,2.2,4.7C-109.2,422.6-109,424-109,425.4z M-117.9,432.1c0.2,0,0.3,0,0.5,0c0.7-0.1,1.3-0.4,1.8-0.9
		c0.4-0.4,0.7-0.9,0.9-1.4c0.4-1.3,0.7-2.6,0.7-4l0-0.7c0-1.3-0.1-2.5-0.4-3.8c-0.1-0.6-0.4-1.2-0.7-1.7c-0.3-0.4-0.6-0.8-1-1.1
		c-0.5-0.3-1.1-0.5-1.8-0.5c-0.2,0-0.3,0-0.5,0c-0.7,0.1-1.3,0.4-1.8,0.9c-0.4,0.4-0.6,0.9-0.8,1.4c-0.4,1.3-0.7,2.6-0.7,4l0,0.7
		c0,1.3,0.1,2.5,0.4,3.8c0.1,0.6,0.4,1.2,0.7,1.7c0.3,0.5,0.8,1,1.3,1.3C-118.9,432-118.4,432.2-117.9,432.1z"/>
	<path id="Fill-96-Copy" d="M-130.3,435.8v-4.4c-0.8,0.3-1.7,0.5-2.6,0.5c-0.8,0-1.7-0.2-2.4-0.5c-0.9-0.5-1.7-1.2-2.2-2
		c-0.8-1.3-1.2-2.8-1.1-4.4c0-0.6,0-1.3,0.2-1.9c0.2-1.4,0.9-2.8,1.9-3.8c0.9-0.9,2.1-1.3,3.3-1.4h0.3c0.9,0,1.9,0.2,2.7,0.5v-4.1
		c-1-0.4-2.1-0.5-3.1-0.5c-0.9,0-1.9,0.1-2.8,0.3c-2.3,0.6-4.3,1.9-5.7,3.8c-0.2,0.3-0.4,0.5-0.5,0.8c-1.1,2-1.6,4.2-1.6,6.5
		c-0.1,2.2,0.5,4.4,1.6,6.3c1.2,1.9,2.9,3.4,5,4.1c1.3,0.5,2.7,0.7,4.1,0.7C-132.2,436.3-131.2,436.1-130.3,435.8"/>
</g>
</svg>
